<svg width="145" height="125" viewBox="0 0 145 125" fill="none" xmlns="http://www.w3.org/2000/svg">
<g clip-path="url(#clip0_0_1)">
<path d="M77.719 106.246C71.4558 108.412 64.622 105.092 62.4552 98.8284L48.2332 57.719C46.0664 51.4558 49.3872 44.622 55.6504 42.4552L96.7598 28.2332C103.023 26.0664 109.857 29.3872 112.024 35.6504L126.246 76.7598C128.412 83.023 125.092 89.8569 118.828 92.0236L77.719 106.246Z" fill="#FFD600"/>
<path d="M102.537 79.6982C104.452 81.2657 106.445 82.7131 109.268 81.7366C111.639 80.9163 112.475 79.3077 111.911 77.6775C111.236 75.7265 109.71 75.4787 106.709 75.2453L105.068 75.1304C100.335 74.8075 96.8316 73.5633 95.2286 68.9297C93.7512 64.6593 95.8962 60.2785 101.005 58.5111C104.643 57.2526 107.692 57.6083 110.719 60.2554L107.249 64.6441C105.664 63.2324 104.366 62.9097 102.723 63.4779C101.047 64.0578 100.351 65.4829 100.829 66.865C101.42 68.5732 102.723 68.8964 105.543 69.1053L107.184 69.2201C112.764 69.6088 116.239 70.7756 117.885 75.5315C119.657 80.656 116.582 84.8647 111.149 86.7442C105.835 88.5827 101.895 86.9598 99.0729 84.2398L102.537 79.6982ZM82.0576 86.9459C83.5096 88.2411 85.2995 89.0048 87.2593 88.3268C89.134 87.6782 89.9569 86.5642 88.9607 83.6848L82.4695 64.9215L88.3754 62.8783L95.1805 82.5488C97.2445 88.515 94.7231 92.4269 89.6694 94.1752C85.1031 95.755 80.7369 93.8013 78.3995 91.3919L82.0576 86.9459Z" fill="#000001"/>
</g>
<g clip-path="url(#clip1_0_1)">
<rect x="15.1129" y="3.53056" width="60" height="60" rx="12" transform="rotate(11.3213 15.1129 3.53056)" fill="#00BCD4"/>
<path d="M19.6947 27.1673L26.1984 28.4694C26.5508 28.5399 26.9016 28.6381 27.251 28.7638C27.6003 28.8895 27.9243 29.0619 28.223 29.2811C28.5233 29.4926 28.7898 29.7531 29.0226 30.0626C29.2555 30.3722 29.4392 30.7476 29.574 31.1889C29.7103 31.6225 29.7799 32.1304 29.7828 32.7127C29.7934 33.2964 29.7236 33.9636 29.5733 34.7144C29.423 35.4651 29.2267 36.107 28.9846 36.6402C28.7439 37.1657 28.4734 37.6015 28.173 37.9477C27.8726 38.2939 27.5485 38.5597 27.2007 38.745C26.8529 38.9303 26.4959 39.062 26.1296 39.1401C25.765 39.2105 25.3973 39.2365 25.0265 39.218C24.6649 39.1934 24.3117 39.1466 23.967 39.0776L20.3245 38.3483L19.1696 44.1167L16.4118 43.5646L19.6947 27.1673ZM24.1583 36.4508C24.572 36.5336 24.919 36.5314 25.1994 36.4441C25.4875 36.3583 25.7288 36.2075 25.9234 35.9915C26.1257 35.777 26.2867 35.5104 26.4062 35.1918C26.5258 34.8731 26.6239 34.5223 26.7006 34.1392C26.7758 33.7639 26.8203 33.4023 26.8341 33.0545C26.848 32.7067 26.8036 32.3911 26.701 32.1076C26.6076 31.818 26.4452 31.5744 26.2139 31.3767C25.9918 31.1728 25.6739 31.0295 25.2602 30.9467L21.9394 30.2819L20.8375 35.7859L24.1583 36.4508ZM33.6674 29.9647L36.4252 30.5169L35.0656 37.3079L42.0979 38.7158L43.4575 31.9248L46.2153 32.4769L42.9324 48.8742L40.1746 48.322L41.5826 41.2897L34.5502 39.8818L33.1423 46.9141L30.3845 46.362L33.6674 29.9647ZM50.3979 33.3143L56.9016 34.6164C57.254 34.6869 57.6049 34.7851 57.9542 34.9108C58.3035 35.0365 58.6275 35.2089 58.9262 35.4281C59.2265 35.6396 59.493 35.9001 59.7258 36.2096C59.9587 36.5192 60.1425 36.8946 60.2772 37.3359C60.4135 37.7695 60.4831 38.2774 60.486 38.8596C60.4966 39.4434 60.4268 40.1106 60.2765 40.8614C60.1262 41.6121 59.93 42.254 59.6878 42.7872C59.4471 43.3127 59.1766 43.7485 58.8762 44.0947C58.5759 44.4409 58.2518 44.7067 57.9039 44.892C57.5561 45.0773 57.1991 45.209 56.8329 45.2871C56.4682 45.3575 56.1005 45.3835 55.7297 45.365C55.3681 45.3404 55.015 45.2936 54.6702 45.2246L51.0277 44.4953L49.8728 50.2637L47.115 49.7116L50.3979 33.3143ZM54.8615 42.5978C55.2752 42.6806 55.6222 42.6783 55.9026 42.5911C56.1907 42.5053 56.432 42.3545 56.6266 42.1385C56.8289 41.924 56.9899 41.6574 57.1094 41.3388C57.229 41.0201 57.3271 40.6693 57.4038 40.2862C57.479 39.9109 57.5235 39.5493 57.5373 39.2015C57.5512 38.8537 57.5068 38.5381 57.4042 38.2546C57.3108 37.965 57.1485 37.7214 56.9171 37.5237C56.695 37.3198 56.3771 37.1765 55.9635 37.0937L52.6426 36.4289L51.5407 41.9329L54.8615 42.5978Z" fill="white"/>
</g>
<defs>
<clipPath id="clip0_0_1">
<rect width="90" height="90" fill="white" transform="translate(30 39.4249) rotate(-19.0833)"/>
</clipPath>
<clipPath id="clip1_0_1">
<rect width="65" height="65" fill="white" transform="translate(12.7602) rotate(11.3213)"/>
</clipPath>
</defs>
</svg>
