<svg width="99" height="99" viewBox="0 0 99 99" fill="none" xmlns="http://www.w3.org/2000/svg">
<g clip-path="url(#clip0_2_7)">
<path d="M55.6963 47.6613C56.6829 51.1162 54.6859 54.7097 51.231 55.6963C47.7761 56.6829 44.1826 54.6859 43.196 51.231C42.2094 47.7761 44.2064 44.1826 47.6613 43.196C51.1162 42.2094 54.7097 44.2064 55.6963 47.6613Z" fill="#8BB7F0"/>
<path d="M51.3682 56.177C47.6576 57.2367 43.7751 55.0799 42.7152 51.3683C41.6552 47.6566 43.8133 43.7748 47.524 42.7152C51.2346 41.6555 55.1171 43.8123 56.177 47.524C57.237 51.2356 55.0789 55.1174 51.3682 56.177ZM47.7985 43.6767C44.6167 44.5854 42.7681 47.9119 43.6767 51.0937C44.5854 54.2755 47.9118 56.1241 51.0937 55.2155C54.2755 54.3069 56.1241 50.9804 55.2155 47.7986C54.3068 44.6168 50.9804 42.7681 47.7985 43.6767Z" fill="#4E7AB5"/>
<path d="M44.2657 87.8477C42.6205 88.3175 41.0148 88.3684 39.4922 88.0004C36.9448 87.3831 34.8176 85.6735 33.1685 82.9216C31.2501 79.7182 30.0451 75.0798 29.6769 69.4859C19.611 68.9503 12.9832 65.6109 11.4644 60.2925C9.9454 54.9731 13.8095 48.6386 22.075 42.8692C19.4334 37.9234 18.0063 33.3485 17.9437 29.6151C17.8906 26.4064 18.7942 23.8313 20.6309 21.9631C21.7285 20.8468 23.12 20.0418 24.7652 19.572C28.9845 18.3671 35.0256 19.481 41.813 22.7094C45.8734 16.3884 50.4139 12.2548 54.6284 11.0512C56.2736 10.5814 57.8794 10.5305 59.402 10.8986C61.9459 11.5147 64.073 13.2202 65.7212 15.9693C67.6403 19.1714 68.8446 23.8111 69.2124 29.4072C79.28 29.9412 85.9087 33.2804 87.4278 38.5997C88.9468 43.9191 85.081 50.2551 76.8139 56.0261C79.4555 60.9718 80.8826 65.5468 80.9439 69.2794C80.9962 72.4853 80.0925 75.0563 78.2594 76.9224C77.1598 78.0392 75.7684 78.8443 74.1241 79.3138C69.9067 80.5182 63.8662 79.4061 57.0826 76.184C53.0233 82.5087 48.4822 86.6436 44.2657 87.8477ZM33.6979 69.5492C34.0402 74.357 35.0401 78.2626 36.601 80.866C37.6785 82.6653 38.9672 83.7585 40.434 84.1133C41.2753 84.3172 42.1955 84.2801 43.1677 84.0024C46.4312 83.0705 50.1008 79.6493 53.536 74.3473C50.5831 72.6925 47.5979 70.7173 44.6525 68.4696C40.8546 69.1216 37.1727 69.4845 33.6979 69.5492ZM59.123 72.7497C64.838 75.4346 69.7613 76.3998 73.0251 75.4688C73.9972 75.1912 74.7982 74.7368 75.407 74.1189C76.4619 73.046 76.9779 71.4406 76.9426 69.3468C76.8927 66.3097 75.6806 62.4658 73.4327 58.2032C70.4449 59.9841 67.1257 61.6204 63.5571 63.0721C62.2437 66.5359 60.7545 69.7878 59.123 72.7497ZM49.9585 67.3881C51.8424 68.6971 53.7263 69.8824 55.5786 70.9207C56.5997 69.0628 57.5745 67.0612 58.4818 64.9541C57.0676 65.4318 55.6496 65.8742 54.2515 66.2734C52.8524 66.673 51.4136 67.0464 49.9585 67.3881ZM45.708 64.2194C48.1656 63.7391 50.6694 63.1365 53.1531 62.4272C55.6387 61.7174 58.0803 60.9078 60.4173 60.02C61.2739 57.608 62.0368 55.1189 62.6859 52.6175C63.3134 50.1971 63.843 47.707 64.2606 45.2145C62.5943 43.3234 60.8308 41.4891 59.0155 39.7611C57.1477 37.9837 55.1854 36.2728 53.1791 34.6732C50.7275 35.1528 48.2267 35.7547 45.7391 36.465C43.2506 37.1757 40.8081 37.9855 38.4742 38.8735C37.6143 41.2885 36.8495 43.7782 36.2008 46.2774C35.5725 48.7021 35.0436 51.191 34.6271 53.68C36.2919 55.5695 38.0554 57.4038 39.8712 59.1337C41.7333 60.9055 43.6952 62.6155 45.708 64.2194ZM67.577 49.2385C67.2678 50.7266 66.9264 52.1969 66.5563 53.6213C66.1842 55.0608 65.7672 56.5173 65.3153 57.965C67.4976 56.9612 69.5525 55.8866 71.4416 54.7596C70.3117 52.9513 69.0143 51.0994 67.577 49.2385ZM33.5683 65.574C35.7685 65.5322 38.0803 65.3608 40.4606 65.0617C39.3054 64.0646 38.1818 63.047 37.1133 62.0293C36.049 61.0156 34.9823 59.9495 33.9348 58.8488C33.6981 61.1773 33.5747 63.4329 33.5683 65.574ZM68.5004 44.0048C70.9008 46.8459 73.0184 49.7272 74.8055 52.5801C81.2079 48.0437 84.5629 43.1347 83.5815 39.6981C82.6001 36.2615 77.1588 33.8645 69.3263 33.3931C69.3171 36.759 69.0395 40.3243 68.5004 44.0048ZM24.0834 46.3151C17.6836 50.8498 14.3296 55.7585 15.3107 59.1941C16.2921 62.6308 21.7325 65.028 29.5638 65.4987C29.5735 62.1316 29.8503 58.5666 30.3876 54.8907C27.9889 52.0523 25.8714 49.171 24.0834 46.3151ZM27.4451 44.1353C28.5803 45.9472 29.8764 47.7985 31.3091 49.6544C31.6176 48.1707 31.9592 46.7014 32.3295 45.2738C32.7014 43.8375 33.1185 42.381 33.5723 40.9296C31.3898 41.9324 29.3361 43.0077 27.4451 44.1353ZM58.4255 33.8312C59.581 34.8293 60.7043 35.8459 61.7734 36.8655C62.8387 37.879 63.9057 38.946 64.9541 40.0464C65.1919 37.7145 65.315 35.4579 65.3217 33.3179C63.1184 33.3595 60.8066 33.5308 58.4255 33.8312ZM25.8636 23.4182C24.8914 23.6958 24.0911 24.149 23.4855 24.767C22.4282 25.8427 21.9102 27.4518 21.9444 29.549C21.9955 32.5868 23.2076 36.4307 25.4562 40.6921C28.4421 38.9117 31.762 37.2741 35.3325 35.8219C36.6485 32.3563 38.1409 29.1045 39.7723 26.1427C34.0538 23.4525 29.128 22.486 25.8636 23.4182ZM54.2346 30.423C58.0316 29.7713 61.7144 29.4081 65.1921 29.3426C64.851 24.5355 63.8511 20.6299 62.2887 18.0248C61.2123 16.2294 59.9254 15.1388 58.462 14.7851C57.6198 14.5815 56.6996 14.6186 55.7265 14.8965C52.4639 15.8282 48.7949 19.2481 45.359 24.5473C48.3062 26.2006 51.2892 28.1754 54.2346 30.423ZM44.6407 32.6188C46.0388 32.2195 47.4767 31.8464 48.9308 31.505C47.0494 30.1973 45.1658 29.013 43.3161 27.973C42.2913 29.836 41.3181 31.8361 40.4104 33.9381C41.8246 33.4604 43.2426 33.0181 44.6407 32.6188Z" fill="#8BB7F0"/>
<path d="M24.9025 20.0527C29.2237 18.8187 35.3133 20.1061 41.9977 23.3524C45.9598 17.0699 50.4492 12.7647 54.7666 11.5317C56.3273 11.0861 57.8481 11.0366 59.2858 11.3841C61.6945 11.9671 63.7154 13.5958 65.2925 16.2269C67.4037 19.6976 68.5107 24.3973 68.7414 29.8848C78.455 30.3151 85.4178 33.3821 86.947 38.737C88.4762 44.092 84.183 50.3733 76.1608 55.8694C79.0354 61.0523 80.6119 65.7531 80.4441 69.288C80.4939 72.3542 79.6391 74.8051 77.9034 76.5716C76.8644 77.6275 75.8409 78.3077 74.2812 78.7531C74.2803 78.7534 73.8812 78.8674 73.8802 78.8676C69.5609 80.1011 63.579 78.783 56.8983 75.5419C52.9369 81.8273 48.4468 86.1338 44.1275 87.3672C42.5669 87.8129 41.046 87.8624 39.6083 87.5148C37.1969 86.9295 35.1742 85.2982 33.5975 82.6649C31.4326 79.4176 30.3217 74.6535 30.1489 69.0079C20.436 68.5764 13.4744 65.5101 11.9452 60.1552C10.4163 54.8012 14.7086 48.5202 22.7279 43.0249C21.2273 40.2721 20.0253 37.6618 19.2997 35.1755C18.7264 33.2115 18.4721 31.305 18.4446 29.6063C18.3936 26.5362 19.2489 24.0831 20.9878 22.3136C22.0239 21.2585 23.3419 20.4984 24.9025 20.0527ZM25.2627 41.3911C28.3438 39.518 31.8581 37.7636 35.723 36.2023C37.1319 32.4616 38.7366 29.002 40.4679 25.9201C34.5898 23.079 29.3222 21.9095 25.726 22.9365C24.6692 23.2382 23.7961 23.7351 23.1283 24.4156C21.9736 25.5909 21.4076 27.3197 21.4443 29.5567C21.4985 32.8712 22.8744 36.9793 25.2627 41.3911ZM65.7258 29.835C65.4242 24.8273 64.423 20.6112 62.7187 17.7679C61.5706 15.8525 60.1778 14.6861 58.5801 14.299C57.6527 14.074 56.6459 14.114 55.5901 14.4155C51.9968 15.4416 48.1432 19.2127 44.6517 24.7254C47.7484 26.4285 50.9352 28.5198 54.1048 30.952C58.2094 30.2374 62.1202 29.8715 65.7258 29.835ZM39.5129 34.7758C41.2163 34.1781 42.9283 33.5925 44.7351 33.0765C46.5418 32.5605 48.3715 32.1358 50.1334 31.7429C47.7691 30.048 45.4127 28.5556 43.121 27.2934C41.8415 29.5755 40.6276 32.0874 39.5129 34.7758ZM53.2904 62.908C55.9453 62.1498 58.4534 61.3077 60.8101 60.4049C61.6894 57.9522 62.4847 55.3872 63.1691 52.7436C63.8388 50.1615 64.3768 47.5878 64.7926 45.0636C63.1065 43.1397 61.2908 41.2392 59.3598 39.4008C57.3814 37.5166 55.3528 35.7591 53.3099 34.1408C50.8323 34.6164 48.2576 35.2258 45.6018 35.9843C42.946 36.7427 40.4368 37.5851 38.0804 38.4888C37.1992 40.9421 36.403 43.5074 35.7176 46.1512C35.0489 48.7331 34.5109 51.3067 34.0951 53.8309C35.7812 55.7549 37.5959 57.6557 39.5269 59.4941C41.5051 61.3773 43.5349 63.1355 45.5778 64.7537C48.057 64.2766 50.6336 63.6667 53.2904 62.908ZM65.3327 41.179C65.6706 38.2652 65.8354 35.4518 65.8195 32.8106C63.1719 32.8367 60.301 33.0533 57.2468 33.4835C58.6545 34.6695 60.0517 35.9168 61.4275 37.2274C62.7894 38.5222 64.0893 39.8441 65.3327 41.179ZM31.5851 50.8173C31.935 49.0274 32.3419 47.2182 32.8124 45.399C33.2896 43.5593 33.8187 41.7629 34.3888 40.0121C31.5677 41.2587 29.0156 42.5917 26.7535 43.9677C28.1348 46.219 29.7601 48.5201 31.5851 50.8173ZM74.6595 53.2926C81.6738 48.4441 85.1239 43.2782 84.0623 39.5608C83.0007 35.8434 77.3429 33.2784 68.8261 32.8652C68.8447 36.401 68.5618 40.2028 67.9732 44.1543C70.56 47.2001 72.8079 50.2792 74.6595 53.2926ZM30.064 66.0266C30.0446 62.4921 30.3266 58.6905 30.9155 54.74C28.329 51.6952 26.0808 48.6151 24.2304 45.6024C17.2171 50.4506 13.7686 55.615 14.8299 59.3314C15.8915 63.0488 21.5481 65.6131 30.064 66.0266ZM64.4998 58.8822C67.321 57.6356 69.8733 56.3036 72.1351 54.9265C70.7529 52.6756 69.1273 50.3735 67.3023 48.0763C66.9514 49.8664 66.5446 51.6757 66.0731 53.4951C65.5969 55.3346 65.069 57.1316 64.4998 58.8822ZM41.6384 65.4097C40.2307 64.2236 38.8337 62.9773 37.4573 61.6679C36.0973 60.3726 34.7976 59.0517 33.5555 57.7175C33.2183 60.63 33.0542 63.4422 33.0698 66.0824C35.7162 66.0557 38.5861 65.8393 41.6384 65.4097ZM43.3047 84.4823C46.9 83.4556 50.754 79.6822 54.2449 74.1677C51.145 72.4644 47.9561 70.3727 44.783 67.9394C40.6787 68.6549 36.7698 69.0204 33.1651 69.0565C33.4678 74.0639 34.4687 78.2791 36.172 81.1227C37.3209 83.041 38.7155 84.2099 40.3157 84.5985C41.2412 84.824 42.2479 84.784 43.3047 84.4823ZM73.1624 75.9496C74.2191 75.6478 75.0932 75.1507 75.763 74.4696C76.9153 73.2971 77.4802 71.5717 77.4425 69.3382C77.388 66.0227 76.012 61.9146 73.625 57.5035C70.5439 59.3765 67.0305 61.1307 63.1664 62.6908C61.7593 66.4309 60.1565 69.89 58.4265 72.9725C64.302 75.8082 69.5668 76.9753 73.1624 75.9496ZM55.7727 71.6005C57.052 69.3174 58.2647 66.8049 59.3783 64.1167C57.6759 64.7142 56.0476 65.4142 54.2398 65.9304C52.4311 66.4469 50.5171 66.7585 48.755 67.1504C51.1215 68.8458 53.4801 70.3385 55.7727 71.6005ZM24.3071 19.2608C22.5773 19.7548 21.4335 20.4329 20.2746 21.6114C18.3415 23.5789 17.389 26.274 17.4446 29.6225C17.5064 33.3352 18.881 37.8462 21.4282 42.7128C13.2258 48.5463 9.42536 54.9729 10.9837 60.4298C12.5423 65.8876 19.1639 69.3369 29.21 69.9593C29.6168 75.4372 30.8317 79.9937 32.7407 83.1789C34.4602 86.0501 36.6914 87.8361 39.3744 88.4874C40.9831 88.8767 42.7419 88.7353 44.4708 88.2416C48.7853 87.0095 53.1528 83.1259 57.2653 76.8234C64.0834 79.9993 69.946 81.027 74.2598 79.7961C75.9896 79.3021 77.4551 78.4541 78.6157 77.2741C80.5474 75.3091 81.4988 72.6174 81.4434 69.2731C81.3822 65.5591 80.0077 61.0481 77.4607 56.1825C85.6648 50.3474 89.4671 43.9203 87.9085 38.4624C86.35 33.0046 79.728 29.5543 69.68 28.9325C69.2739 23.4534 68.058 18.8971 66.149 15.7119C64.4291 12.8429 62.1987 11.0598 59.5197 10.4115C57.9123 10.023 56.2197 10.0758 54.4908 10.5695C50.1782 11.801 45.7437 15.7703 41.6304 22.0699C34.8087 18.8888 28.941 17.9344 24.6255 19.1667L24.3071 19.2608ZM25.6557 39.9924C24.5733 37.8846 23.6772 35.8754 23.1363 34.0435C22.6496 32.3937 22.4655 30.8895 22.443 29.5398C22.411 27.5813 22.8814 26.0929 23.841 25.1158C24.3855 24.561 25.1065 24.0847 25.994 23.8313C29.0527 22.9578 33.6759 23.9026 39.0771 26.3703C37.5656 29.1658 36.1772 32.2101 34.9424 35.4393C31.6051 36.8083 28.4868 38.3363 25.6557 39.9924ZM46.0701 24.3754C49.3536 19.4308 52.8089 16.2497 55.8638 15.3773C56.7523 15.1236 57.5875 15.0878 58.344 15.2712C59.6723 15.5928 60.856 16.6057 61.861 18.2822C63.4752 20.7519 64.3951 24.3849 64.6534 28.8548C61.3751 28.9444 57.9208 29.2923 54.3653 29.8938C51.6127 27.8043 48.828 25.9517 46.0701 24.3754ZM41.3208 33.1093C42.0177 31.5583 42.7502 30.07 43.5109 28.6588C44.9022 29.4554 46.3092 30.3328 47.719 31.2821C46.6321 31.5509 45.5564 31.8373 44.5034 32.138C43.4505 32.4387 42.3868 32.7633 41.3208 33.1093ZM38.8673 39.2594C41.1252 38.4077 43.4689 37.5907 45.8652 36.9064C48.2604 36.2224 50.6821 35.6785 53.0484 35.2097C54.9797 36.7579 56.8699 38.4094 58.6699 40.124C60.4155 41.7866 62.1157 43.5485 63.7269 45.3669C63.3182 47.7632 62.8052 50.1582 62.2007 52.4919C61.5769 54.8997 60.8446 57.299 60.0221 59.6336C57.7661 60.4848 55.4566 61.422 53.0614 62.106C50.6642 62.7906 48.2069 63.2136 45.8388 63.6829C43.9067 62.136 42.0166 60.4845 40.2153 58.7692C38.47 57.1076 36.7708 55.3454 35.1592 53.526C35.567 51.1299 36.0801 48.735 36.6845 46.4013C37.3095 43.9942 38.0435 41.5933 38.8673 39.2594ZM64.5575 38.9159C63.75 38.0878 62.9341 37.2808 62.1181 36.503C61.3039 35.7277 60.4627 34.9561 59.6029 34.1959C61.3917 33.9992 63.136 33.8765 64.8169 33.8301C64.7979 35.4642 64.7107 37.1655 64.5575 38.9159ZM28.143 44.3031C29.5949 43.4548 31.141 42.6378 32.7639 41.8603C32.4342 42.9601 32.1273 44.0597 31.845 45.147C31.5629 46.2384 31.2961 47.3546 31.0477 48.4842C29.9938 47.0806 29.0223 45.6816 28.143 44.3031ZM69.028 43.8531C69.5204 40.4241 69.7878 37.0926 69.823 33.9272C77.1524 34.4539 82.2003 36.6824 83.1007 39.8354C84.0011 42.9884 80.8912 47.5465 74.9453 51.8642C73.2426 49.1941 71.2569 46.505 69.028 43.8531ZM29.066 64.9648C21.7386 64.4376 16.6916 62.2088 15.7915 59.0568C14.8914 55.9048 18.0003 51.3469 23.9434 47.0301C25.6451 49.7005 27.6305 52.3886 29.8594 55.0405C29.3677 58.4683 29.1012 61.7995 29.066 64.9648ZM66.1238 57.0342C66.4523 55.9337 66.7601 54.8339 67.0414 53.7469C67.3245 52.6552 67.591 51.5381 67.8394 50.4085C68.8938 51.8139 69.8656 53.2139 70.7459 54.5922C69.2925 55.4388 67.7467 56.2567 66.1238 57.0342ZM34.0724 65.0629C34.0914 63.4289 34.1779 61.7288 34.3308 59.9806C35.137 60.808 35.9529 61.615 36.7686 62.3919C37.5815 63.1664 38.4225 63.9371 39.2835 64.698C37.4954 64.8935 35.7521 65.0159 34.0724 65.0629ZM43.0301 83.5207C42.1416 83.7744 41.3073 83.8099 40.5509 83.6266C39.221 83.3033 38.0358 82.2887 37.0297 80.6084C35.4495 78.1009 34.511 74.4722 34.2373 70.0358C37.5147 69.9464 40.968 69.5988 44.5225 68.9976C47.2773 71.0875 50.0642 72.9405 52.8255 74.5179C49.5432 79.4664 46.0872 82.6487 43.0301 83.5207ZM63.9476 63.4525C67.2842 62.0847 70.4016 60.557 73.2329 58.9019C75.597 63.1563 76.7181 66.7652 76.4434 69.3541C76.4766 71.3092 76.0073 72.7941 75.0497 73.7675C74.5032 74.3229 73.776 74.7333 72.8885 74.9868C69.8307 75.86 65.2147 74.9838 59.8168 72.5204C61.3273 69.7252 62.7138 66.6814 63.9476 63.4525ZM55.3828 70.2351C53.9906 69.4387 52.5814 68.5609 51.1703 67.6109C52.2582 67.3418 53.3349 67.0552 54.3888 66.7542C55.4417 66.4535 56.5064 66.1287 57.5714 65.7829C56.8757 67.3346 56.1435 68.8239 55.3828 70.2351Z" fill="#4E7AB5"/>
</g>
<defs>
<clipPath id="clip0_2_7">
<rect width="80" height="80" fill="white" transform="translate(0 21.9674) rotate(-15.9377)"/>
</clipPath>
</defs>
</svg>
